<svg width="446" height="92" viewBox="0 0 446 92" fill="none" xmlns="http://www.w3.org/2000/svg">
<path d="M5.64023 80.9214L1.61552 75.121H5.45088L7.60517 78.317L9.73578 75.121H13.4527L9.42803 80.8502L13.9498 87.3606H10.1148L7.55788 83.5019L5.00106 87.3606H1.23682L5.64023 80.9214Z" fill="#E62B1E"/>
<path d="M29.8812 80.1154H17.9258V77.5822H29.8812V80.1154ZM29.8812 85.1818H17.9258V82.6486H29.8812V85.1818Z" fill="white"/>
<path d="M39.0413 73.2268H35.6797V70.4567H39.0413V73.2268ZM35.6797 75.1205H39.0413V87.3601H35.6797V75.1205Z" fill="white"/>
<path d="M41.2197 75.1207H44.416V76.8252H44.4869C44.8847 76.1947 45.4373 75.6766 46.0921 75.3203C46.7469 74.9639 47.482 74.7811 48.2274 74.7894C51.8021 74.7894 52.7017 76.8016 52.7017 79.8319V87.3603H49.34V80.4474C49.34 78.4352 48.7482 77.441 47.1858 77.441C45.3629 77.441 44.5817 78.4588 44.5817 80.9447V87.3603H41.2197V75.1207Z" fill="white"/>
<path d="M63.5192 85.7977H63.4719C62.6908 87.1232 61.3176 87.6915 59.755 87.6915C56.0619 87.6915 54.2627 84.5191 54.2627 81.1339C54.2627 77.8431 56.0856 74.7892 59.6841 74.7892C60.3954 74.7661 61.1013 74.9207 61.7378 75.2389C62.3744 75.5572 62.9215 76.0291 63.3299 76.6121H63.3535V70.4567H66.7152V87.3601H63.5192V85.7977ZM60.5837 77.3224C58.3819 77.3224 57.6244 79.2162 57.6244 81.2287C57.6244 83.1461 58.5004 85.1583 60.5837 85.1583C62.8089 85.1583 63.4719 83.2172 63.4719 81.2048C63.4719 79.2162 62.7617 77.3224 60.5837 77.3224Z" fill="white"/>
<path d="M71.5443 82.057C71.6388 84.1877 72.6805 85.1582 74.5509 85.1582C75.9001 85.1582 76.9893 84.3298 77.2023 83.5722H80.1617C79.2145 86.4604 77.2023 87.6914 74.4325 87.6914C70.5735 87.6914 68.1826 85.0401 68.1826 81.2523C68.1826 77.5825 70.7156 74.7891 74.4325 74.7891C78.599 74.7891 80.6115 78.2928 80.3747 82.057H71.5443ZM77.0129 79.9264C76.7052 78.2219 75.9713 77.3223 74.3377 77.3223C73.9816 77.3028 73.6253 77.3554 73.29 77.477C72.9547 77.5985 72.6475 77.7865 72.3866 78.0297C72.1258 78.2728 71.9167 78.5662 71.772 78.8921C71.6272 79.218 71.5498 79.5698 71.5443 79.9264H77.0129Z" fill="white"/>
<path d="M81.8887 75.1208H85.0849V76.6835H85.1322C85.5174 76.0729 86.0581 75.5758 86.6987 75.2429C87.3394 74.9101 88.057 74.7536 88.778 74.7894C92.6131 74.7894 94.3415 77.8909 94.3415 81.3707C94.3415 84.6379 92.5422 87.6918 88.9673 87.6918C88.2508 87.7106 87.5408 87.5518 86.9005 87.2296C86.2603 86.9074 85.7097 86.4318 85.2979 85.8452H85.2506V91.6689H81.8887V75.1208ZM90.9795 81.2762C90.9795 79.3349 90.1983 77.3226 88.0441 77.3226C85.8425 77.3226 85.1322 79.2876 85.1322 81.2762C85.1322 83.2648 85.8898 85.1586 88.0677 85.1586C90.2695 85.1586 90.9795 83.2648 90.9795 81.2762Z" fill="white"/>
<path d="M98.6493 82.057C98.7438 84.1877 99.7855 85.1582 101.656 85.1582C103.005 85.1582 104.094 84.3298 104.307 83.5722H107.267C106.319 86.4604 104.307 87.6914 101.537 87.6914C97.6785 87.6914 95.2876 85.0401 95.2876 81.2523C95.2876 77.5825 97.8205 74.7891 101.537 74.7891C105.704 74.7891 107.716 78.2928 107.48 82.057H98.6493ZM104.118 79.9264C103.81 78.2219 103.076 77.3223 101.443 77.3223C101.087 77.3028 100.73 77.3554 100.395 77.477C100.06 77.5985 99.7524 77.7865 99.4916 78.0297C99.2307 78.2728 99.0217 78.5662 98.8769 78.8921C98.7322 79.218 98.6548 79.5698 98.6493 79.9264H104.118Z" fill="white"/>
<path d="M108.994 75.1207H112.19V76.8252H112.261C112.659 76.1947 113.211 75.6766 113.866 75.3203C114.521 74.9639 115.256 74.7811 116.001 74.7894C119.576 74.7894 120.476 76.8016 120.476 79.8319V87.3603H117.114V80.4474C117.114 78.4352 116.522 77.441 114.96 77.441C113.137 77.441 112.356 78.4588 112.356 80.9447V87.3603H108.994V75.1207Z" fill="white"/>
<path d="M131.293 85.7977H131.246C130.465 87.1232 129.092 87.6915 127.529 87.6915C123.836 87.6915 122.037 84.5191 122.037 81.1339C122.037 77.8431 123.86 74.7892 127.458 74.7892C128.169 74.7661 128.875 74.9207 129.512 75.2389C130.148 75.5572 130.696 76.0291 131.104 76.6121H131.127V70.4567H134.489V87.3601H131.293V85.7977ZM128.358 77.3224C126.156 77.3224 125.398 79.2162 125.398 81.2287C125.398 83.1461 126.274 85.1583 128.358 85.1583C130.583 85.1583 131.246 83.2172 131.246 81.2048C131.246 79.2162 130.536 77.3224 128.358 77.3224Z" fill="white"/>
<path d="M139.318 82.057C139.412 84.1877 140.454 85.1582 142.324 85.1582C143.674 85.1582 144.763 84.3298 144.976 83.5722H147.935C146.988 86.4604 144.976 87.6914 142.206 87.6914C138.347 87.6914 135.956 85.0401 135.956 81.2523C135.956 77.5825 138.489 74.7891 142.206 74.7891C146.372 74.7891 148.385 78.2928 148.148 82.057H139.318ZM144.786 79.9264C144.479 78.2219 143.745 77.3223 142.111 77.3223C141.755 77.3028 141.399 77.3554 141.063 77.477C140.728 77.5985 140.421 77.7865 140.16 78.0297C139.899 78.2728 139.69 78.5662 139.545 78.8921C139.401 79.218 139.323 79.5698 139.318 79.9264H144.786Z" fill="white"/>
<path d="M149.662 75.1207H152.858V76.8252H152.929C153.327 76.1947 153.88 75.6766 154.534 75.3203C155.189 74.9639 155.924 74.7811 156.67 74.7894C160.244 74.7894 161.144 76.8016 161.144 79.8319V87.3603H157.782V80.4474C157.782 78.4352 157.191 77.441 155.628 77.441C153.805 77.441 153.024 78.4588 153.024 80.9447V87.3603H149.662V75.1207Z" fill="white"/>
<path d="M167.488 75.1206H169.95V77.3697H167.488V83.4303C167.488 84.5668 167.772 84.8507 168.908 84.8507C169.258 84.8544 169.607 84.8227 169.95 84.7561V87.3839C169.299 87.4734 168.642 87.513 167.985 87.5023C165.925 87.5023 164.126 87.0288 164.126 84.5904V77.3697H162.09V75.1206H164.126V71.4512H167.488V75.1206Z" fill="white"/>
<path d="M171.18 70.4567H174.541V87.3601H171.18V70.4567Z" fill="white"/>
<path d="M182.757 88.8994C182.023 90.8646 180.863 91.6692 178.543 91.6692C177.854 91.6652 177.167 91.6257 176.483 91.5508V88.781C177.135 88.8566 177.791 88.8961 178.448 88.8994C179.608 88.781 179.987 87.5735 179.608 86.603L175.299 75.121H178.898L181.668 83.5019H181.715L184.39 75.121H187.87L182.757 88.8994Z" fill="white"/>
<path d="M200.582 74.7891C204.441 74.7891 206.927 77.3459 206.927 81.2523C206.927 85.1346 204.441 87.6914 200.582 87.6914C196.747 87.6914 194.261 85.1346 194.261 81.2523C194.261 77.3459 196.747 74.7891 200.582 74.7891ZM200.582 85.1582C202.879 85.1582 203.565 83.1933 203.565 81.2523C203.565 79.2873 202.879 77.3223 200.582 77.3223C198.31 77.3223 197.623 79.2873 197.623 81.2523C197.623 83.1933 198.31 85.1582 200.582 85.1582Z" fill="white"/>
<path d="M208.157 75.1205H211.353V77.3932H211.4C211.732 76.6294 212.277 75.9774 212.97 75.5155C213.662 75.0536 214.474 74.8014 215.307 74.7891C215.556 74.7919 215.803 74.8318 216.04 74.9075V78.0323C215.643 77.9532 215.238 77.9137 214.833 77.9142C212.371 77.9142 211.519 79.6896 211.519 81.8441V87.3601H208.157V75.1205Z" fill="white"/>
<path d="M228.657 86.5788C228.657 88.5911 227.947 92 222.312 92C219.898 92 217.08 90.864 216.915 88.0704H220.253C220.561 89.325 221.578 89.7514 222.762 89.7514C224.633 89.7514 225.485 88.4726 225.461 86.7209V85.111H225.414C225.022 85.7205 224.476 86.2164 223.832 86.5488C223.188 86.8813 222.468 87.0386 221.744 87.005C218.075 87.005 216.512 84.2113 216.512 80.8497C216.512 77.6774 218.335 74.7891 221.768 74.7891C223.378 74.7891 224.609 75.3337 225.414 76.7541H225.461V75.1205H228.657V86.5788ZM225.461 81.0865C225.461 79.0977 224.774 77.3223 222.596 77.3223C220.703 77.3223 219.874 78.9795 219.874 80.8024C219.874 82.5541 220.537 84.4718 222.596 84.4718C224.514 84.4718 225.461 82.8383 225.461 81.0865Z" fill="white"/>
<path d="M230.266 78.8847C230.455 75.736 233.272 74.7891 236.018 74.7891C238.457 74.7891 241.392 75.3337 241.392 78.2692V84.6375C241.392 85.7501 241.511 86.863 241.819 87.3601H238.409C238.283 86.9765 238.203 86.579 238.173 86.1763C237.623 86.6927 236.975 87.0929 236.267 87.3532C235.559 87.6136 234.806 87.7286 234.053 87.6914C231.733 87.6914 229.887 86.5316 229.887 84.022C229.887 81.2522 231.97 80.5892 234.053 80.3051C236.113 79.9973 238.031 80.0685 238.031 78.6954C238.031 77.2511 237.036 77.0382 235.852 77.0382C234.574 77.0382 233.745 77.5589 233.627 78.8847H230.266ZM238.031 81.3704C237.462 81.8677 236.279 81.8914 235.237 82.0807C234.195 82.2939 233.248 82.6489 233.248 83.88C233.248 85.1346 234.219 85.4424 235.308 85.4424C237.936 85.4424 238.031 83.3592 238.031 82.6253V81.3704Z" fill="white"/>
<path d="M243.522 75.1207H246.719V76.8252H246.79C247.187 76.1947 247.74 75.6766 248.395 75.3203C249.05 74.9639 249.785 74.7811 250.53 74.7894C254.105 74.7894 255.004 76.8016 255.004 79.8319V87.3603H251.643V80.4474C251.643 78.4352 251.051 77.441 249.488 77.441C247.666 77.441 246.884 78.4588 246.884 80.9447V87.3603H243.522V75.1207Z" fill="white"/>
<path d="M260.069 73.2268H256.708V70.4567H260.069V73.2268ZM256.708 75.1205H260.069V87.3601H256.708V75.1205Z" fill="white"/>
<path d="M261.49 84.8274L267.858 77.6542H261.963V75.121H272.285V77.6542L265.917 84.8274H272.735V87.3606H261.49V84.8274Z" fill="white"/>
<path d="M276.83 82.057C276.924 84.1877 277.966 85.1582 279.836 85.1582C281.186 85.1582 282.275 84.3298 282.488 83.5722H285.447C284.5 86.4604 282.488 87.6914 279.718 87.6914C275.859 87.6914 273.468 85.0401 273.468 81.2523C273.468 77.5825 276.001 74.7891 279.718 74.7891C283.885 74.7891 285.897 78.2928 285.661 82.057H276.83ZM282.298 79.9264C281.991 78.2219 281.257 77.3223 279.623 77.3223C279.267 77.3028 278.911 77.3554 278.576 77.4769C278.24 77.5985 277.933 77.7865 277.672 78.0297C277.411 78.2728 277.202 78.5662 277.058 78.8921C276.913 79.218 276.835 79.5698 276.83 79.9264H282.298Z" fill="white"/>
<path d="M295.91 85.7977H295.863C295.081 87.1232 293.709 87.6915 292.146 87.6915C288.453 87.6915 286.653 84.5191 286.653 81.1339C286.653 77.8431 288.476 74.7892 292.075 74.7892C292.786 74.7661 293.492 74.9207 294.129 75.2389C294.765 75.5572 295.312 76.0291 295.721 76.6121H295.744V70.4567H299.106V87.3601H295.91V85.7977ZM292.975 77.3224C290.773 77.3224 290.016 79.2162 290.016 81.2287C290.016 83.1461 290.891 85.1583 292.975 85.1583C295.2 85.1583 295.863 83.2172 295.863 81.2048C295.863 79.2162 295.153 77.3224 292.975 77.3224Z" fill="white"/>
<path d="M311.368 73.5818H306.302V70.4567H320.151V73.5818H315.085V87.3601H311.368V73.5818Z" fill="white"/>
<path d="M321.617 70.4567H334.259V73.5818H325.334V77.2039H333.525V80.0922H325.334V84.2351H334.448V87.3601H321.617V70.4567Z" fill="white"/>
<path d="M336.012 70.4567H343.303C347.683 70.4567 350.974 73.2032 350.974 78.8139C350.974 83.7143 348.464 87.3601 343.303 87.3601H336.012V70.4567ZM339.729 84.2351H343.043C345.197 84.2351 347.257 82.9095 347.257 79.1689C347.257 75.7597 346.073 73.5818 342.38 73.5818H339.729V84.2351Z" fill="white"/>
<path d="M361.601 82.057C361.695 84.1877 362.737 85.1582 364.607 85.1582C365.957 85.1582 367.046 84.3298 367.259 83.5722H370.218C369.271 86.4604 367.259 87.6914 364.489 87.6914C360.63 87.6914 358.239 85.0401 358.239 81.2523C358.239 77.5825 360.772 74.7891 364.489 74.7891C368.656 74.7891 370.668 78.2928 370.432 82.057H361.601ZM367.069 79.9264C366.762 78.2219 366.028 77.3223 364.394 77.3223C364.038 77.3028 363.682 77.3554 363.347 77.477C363.011 77.5985 362.704 77.7865 362.443 78.0297C362.182 78.2728 361.973 78.5662 361.829 78.8921C361.684 79.218 361.606 79.5698 361.601 79.9264H367.069Z" fill="white"/>
<path d="M378.243 87.3606H374.503L370.312 75.121H373.84L376.42 83.4779H376.468L379.048 75.121H382.386L378.243 87.3606Z" fill="white"/>
<path d="M385.605 82.057C385.7 84.1877 386.742 85.1582 388.612 85.1582C389.961 85.1582 391.05 84.3298 391.263 83.5722H394.222C393.276 86.4604 391.263 87.6914 388.493 87.6914C384.635 87.6914 382.244 85.0401 382.244 81.2523C382.244 77.5825 384.777 74.7891 388.493 74.7891C392.66 74.7891 394.672 78.2928 394.435 82.057H385.605ZM391.074 79.9264C390.766 78.2219 390.032 77.3223 388.399 77.3223C388.043 77.3028 387.686 77.3554 387.351 77.477C387.016 77.5985 386.709 77.7865 386.448 78.0297C386.187 78.2728 385.978 78.5662 385.833 78.8921C385.688 79.218 385.611 79.5698 385.605 79.9264H391.074Z" fill="white"/>
<path d="M395.949 75.1207H399.145V76.8252H399.216C399.614 76.1948 400.167 75.6767 400.821 75.3203C401.476 74.964 402.211 74.7812 402.957 74.7894C406.532 74.7894 407.431 76.8016 407.431 79.8319V87.3603H404.07V80.4474C404.07 78.4352 403.478 77.441 401.915 77.441C400.092 77.441 399.311 78.4588 399.311 80.9447V87.3603H395.949V75.1207Z" fill="white"/>
<path d="M413.775 75.1206H416.237V77.3697H413.775V83.4303C413.775 84.5668 414.059 84.8507 415.195 84.8507C415.545 84.8544 415.894 84.8227 416.237 84.7561V87.3839C415.586 87.4734 414.929 87.513 414.272 87.5023C412.212 87.5023 410.413 87.0288 410.413 84.5904V77.3697H408.377V75.1206H410.413V71.4512H413.775V75.1206Z" fill="white"/>
<path d="M15.7728 14.5329H0V0.107605H48.8691V14.5329H33.1022V56.3896H15.7728V14.5329Z" fill="#E62B1E"/>
<path d="M51.563 0.107605H99.0027V14.5329H68.9035V21.5463H99.0027V34.9511H68.9035V41.9651H99.0108V56.3896H51.563V0.107605Z" fill="#E62B1E"/>
<path d="M101.92 0.107605H130.376C149.134 0.107605 155.763 13.9815 155.763 28.166C155.763 45.434 146.619 56.3896 126.99 56.3896H101.92V0.107605ZM119.26 41.9651H126.041C136.843 41.9651 138.423 33.2124 138.423 27.9253C138.423 24.3849 137.313 14.5329 124.779 14.5329H119.26V41.9651Z" fill="#E62B1E"/>
<path d="M180.679 34.7015L175.39 25.9298L170.231 34.7015H157.526L169.588 16.9652L157.974 0H170.683L175.39 8.38599L180.231 0H192.937L181.326 16.9652L193.388 34.7015H180.679Z" fill="#E62B1E"/>
<path d="M206.378 0.625275H213.673V54.4154H206.378V0.625275Z" fill="white"/>
<path d="M227.028 0.625305H234.323V54.4154H227.028V0.625305Z" fill="white"/>
<path d="M284.841 0.625305V7.03334H266.877V54.4154H259.546V7.03334H241.581V0.625305H284.841Z" fill="white"/>
<path d="M292.317 0.625305H316.995C321.06 0.625305 324.411 1.22342 327.049 2.41963C332.057 4.71442 334.561 8.94975 334.561 15.1256C334.561 18.3478 333.902 20.9842 332.583 23.0348C331.204 25.1395 329.295 26.8444 327.049 27.9781C328.89 28.6582 330.513 29.8219 331.748 31.3468C332.801 32.7383 333.387 34.9964 333.508 38.121L333.763 45.3344C333.774 46.8736 333.944 48.4074 334.271 49.9115C334.706 51.6204 335.48 52.7189 336.593 53.207V54.4154H327.738C327.462 53.8474 327.266 53.2434 327.157 52.6211C326.949 51.214 326.828 49.7955 326.794 48.3736L326.359 39.4024C326.19 35.8873 324.895 33.5316 322.476 32.3355C321.097 31.6764 318.931 31.3468 315.979 31.3468H299.539V54.4154H292.317V0.625305ZM316.233 25.2685C319.621 25.2685 322.3 24.585 324.272 23.2179C326.244 21.851 327.23 19.3855 327.23 15.8214C327.23 11.9891 325.851 9.37712 323.093 7.98543C321.617 7.25305 319.645 6.88686 317.177 6.88687H299.539V25.2685H316.233Z" fill="white"/>
<path d="M360.618 0.625305H368.784L388.127 54.4154H380.216L374.809 38.3041H353.723L347.953 54.4154H340.549L360.618 0.625305ZM372.486 32.3721L364.393 8.60772L355.792 32.3721H372.486Z" fill="white"/>
<path d="M394.515 0.625305H404.858L420.173 46.1034L435.379 0.625305H445.614V54.4154H438.754V22.6686C438.754 21.5703 438.779 19.7517 438.827 17.2129C438.875 14.6742 438.9 11.9523 438.9 9.04713L423.693 54.4154H416.544L401.229 9.04713V10.695C401.229 12.0133 401.259 14.0211 401.32 16.7184C401.38 19.416 401.41 21.3994 401.41 22.6686V54.4154H394.515V0.625305Z" fill="white"/>
</svg>
